<?xml version="1.0" encoding="UTF-8" standalone="no"?>
<!DOCTYPE svg PUBLIC "-//W3C//DTD SVG 1.1//EN" "http://www.w3.org/Graphics/SVG/1.1/DTD/svg11.dtd">
<svg width="100%" height="100%" viewBox="0 0 429 136" version="1.1" xmlns="http://www.w3.org/2000/svg" xmlns:xlink="http://www.w3.org/1999/xlink" xml:space="preserve" xmlns:serif="http://www.serif.com/" style="fill-rule:evenodd;clip-rule:evenodd;stroke-linejoin:round;stroke-miterlimit:2;">
    <g transform="matrix(1,0,0,1,-11.505123,-24.278496)">
        <g transform="matrix(1,0,0,1,-600,-1794)">
            <g transform="matrix(1.003906,0,0,1.003906,314,1400)">
                <path d="M646.497,498.262C667.657,498.369 673.432,498.227 674.426,498.695C675.597,499.246 676.597,500.702 687.649,512.358C720.568,547.076 723.12,549.692 720.414,550.066C719.759,550.156 693.816,549.895 691.503,549.872C684.241,549.799 685.61,543.844 681.476,545.44C636.344,562.871 597.914,539.515 585.975,514.266C562.035,463.639 602.769,407.516 665.43,417.905C727.614,428.215 733.466,495.204 711.214,522.279C708.953,525.03 708.097,522.797 693.16,506.807C688.964,502.315 690.951,501.651 692.098,498.375C698.778,479.301 690.076,449.176 662.504,443.483C600.255,430.63 587.671,515.851 643.473,525.668C647.267,526.336 663.333,526.797 662.828,523.428C662.757,522.949 641.219,499.872 641.176,499.564C640.824,497.072 642.367,498.361 646.497,498.262Z" style="fill:white;"/>
            </g>
            <g transform="matrix(1.003906,0,0,1.003906,314,1400)">
                <path d="M568.5,524.493C571.235,524.405 577.593,523.439 575.543,526.524C569.597,535.472 564.689,544.285 562.064,548.194C560.693,550.237 559.364,549.869 535.498,549.842C456.868,549.754 455.867,550.416 455.322,548.56C454.682,546.383 455.154,507.104 455.197,503.499C455.236,500.296 460.604,498.375 463.233,497.003C482.966,486.706 482.801,484.5 484.214,485.776C485.228,486.693 482.902,523.114 485.573,524.332C487.027,524.995 561.256,524.554 568.5,524.493Z" style="fill:white;"/>
            </g>
            <g transform="matrix(1.003906,0,0,1.003906,314,1400)">
                <path d="M300.251,437.341C310.753,420.742 310.402,420.457 311.54,419.556C312.639,418.686 443.527,419.314 443.591,419.367C445.792,421.17 443.62,421.372 440.853,425.732C429.931,442.944 430.582,444.296 427.493,444.341C404.822,444.677 385.295,443.253 383.642,445.575C381.438,448.673 381.135,448.246 377.617,449.765C368.108,453.869 368.023,453.452 358.499,457.498C352.904,459.876 355.597,455.151 355.103,446.537C354.931,443.552 350.43,444.311 333.5,444.328C300.361,444.362 300.312,445.151 297.524,444.435C294.885,443.757 297.076,442.77 300.251,437.341Z" style="fill:white;"/>
            </g>
            <g transform="matrix(1.003906,0,0,1.003906,314,1400)">
                <path d="M357.687,463.888C359.584,463.027 380.132,453.694 381.445,453.221C384.782,452.018 383.759,455.038 383.639,497.5C383.495,548.709 383.592,549.143 382.546,549.589C381.542,550.017 356.786,549.91 356.397,549.769C355.106,549.301 355.192,548.725 355.255,502.501C355.303,466.994 354.246,465.908 357.687,463.888Z" style="fill:white;"/>
            </g>
            <g transform="matrix(1.003906,0,0,1.003906,314,1400)">
                <path d="M484.346,423.5C484.258,476.217 484.442,476.448 483.469,477.47C482.311,478.686 456.966,493.387 455.601,492.382C455.113,492.022 454.749,420.6 455.726,419.745C456.056,419.456 483.113,418.093 484.296,420.565C484.296,420.565 484.342,423.265 484.346,423.5Z" style="fill:white;"/>
            </g>
        </g>
    </g>
</svg>
