<?xml version="1.0" standalone="no"?>
<!DOCTYPE svg PUBLIC "-//W3C//DTD SVG 20010904//EN"
 "http://www.w3.org/TR/2001/REC-SVG-20010904/DTD/svg10.dtd">
<svg version="1.0" xmlns="http://www.w3.org/2000/svg"
 width="280.000000pt" height="280.000000pt" viewBox="0 0 280.000000 280.000000"
 preserveAspectRatio="xMidYMid meet">

<g transform="translate(0.000000,280.000000) scale(0.100000,-0.100000)"
fill="#ffffff" stroke="none">
<path d="M1180 2765 c-365 -62 -678 -257 -902 -562 -88 -120 -191 -351 -223
-500 l-7 -33 382 -2 381 -3 -1 -753 0 -753 53 -24 c30 -13 92 -35 138 -49 346
-105 713 -70 1035 98 l102 53 103 -103 c57 -57 108 -104 114 -104 6 0 60 50
120 110 l109 111 -229 229 -230 230 -222 0 c-123 0 -223 -3 -223 -7 0 -4 48
-56 106 -114 59 -59 104 -111 100 -117 -9 -16 -148 -71 -234 -93 -100 -26
-292 -36 -401 -20 -46 7 -89 15 -97 18 -12 4 -14 106 -14 649 l0 644 205 0
205 0 0 160 0 160 -510 0 c-280 0 -510 3 -510 8 0 20 135 165 210 225 242 194
541 269 858 216 l62 -11 0 -804 0 -804 494 0 495 0 30 79 c27 71 71 214 71
233 0 5 -171 8 -380 8 l-380 0 0 756 0 755 -56 25 c-78 34 -212 72 -319 89
-108 18 -331 18 -435 0z"/>
<path d="M2097 2583 c-4 -3 -7 -90 -7 -193 l0 -186 46 -44 c62 -61 145 -171
188 -251 89 -163 128 -330 125 -529 l-2 -125 153 -3 c86 -1 158 2 163 7 16 16
11 268 -8 376 -54 315 -219 609 -455 810 -106 91 -192 149 -203 138z"/>
<path d="M32 1543 c-13 -32 -5 -285 12 -381 51 -281 180 -527 386 -732 92 -93
255 -218 267 -207 2 3 4 91 4 197 l0 192 -65 68 c-118 125 -200 271 -252 445
-23 79 -27 112 -31 260 l-3 170 -155 3 c-141 2 -156 1 -163 -15z"/>
</g>
</svg>
